<?xml version="1.0" encoding="utf-8"?>
<!-- Generator: Adobe Illustrator 23.0.1, SVG Export Plug-In . SVG Version: 6.00 Build 0)  -->
<svg version="1.1" id="圖層_1" xmlns="http://www.w3.org/2000/svg" xmlns:xlink="http://www.w3.org/1999/xlink" x="0px" y="0px"
	 viewBox="0 0 256 256" style="enable-background:new 0 0 256 256;" xml:space="preserve">
<style type="text/css">
	.st0{fill:#FFFFFF;}
</style>
<g>
	<circle class="st0" cx="129.8" cy="85.9" r="47.1"/>
	<path class="st0" d="M198.6,192.3c0-27.7-16-51.6-39.2-63.2c-8.2,7.1-18.9,11.3-30.6,11.3c-12,0-23-4.5-31.3-11.8
		c-23.8,11.4-40.3,35.7-40.2,63.9l0.4,0c-0.2,0.9-0.4,1.9-0.4,2.9v9.7c0,6.6,5.4,12,12,12h117.3c6.6,0,12-5.4,12-12v-9.7
		c0-1.1-0.2-2.1-0.4-3.1L198.6,192.3z"/>
</g>
<path class="st0" d="M85.2,43.9"/>
</svg>
